<?xml version="1.0" encoding="UTF-8"?>
<svg id="Layer_2" xmlns="http://www.w3.org/2000/svg" viewBox="0 0 2586.06 549.33">
  <defs>
    <style>
      .cls-1 {
        font-family: Helvetica-Bold, Helvetica;
        font-size: 200px;
        font-weight: 700;
      }

      .cls-2 {
        fill: #fefefe;
      }

      .cls-3 {
        letter-spacing: -.05em;
      }

      .cls-4 {
        letter-spacing: -.04em;
      }

      .cls-5 {
        fill: #bcd3df;
      }
    </style>
  </defs>
  <g id="Layer_1-2" data-name="Layer_1">
    <g>
      <path class="cls-2" d="M115.9,61.67c.17-.14.34-.27.51-.41-.13.17-.27.34-.4.52,0,0-.11-.11-.11-.11Z"/>
      <g>
        <path class="cls-5" d="M242.99,61.17c-9.44,2.46-17.63,7.67-26.04,12.24-21.1,11.45-40.68,25.24-59,40.69-22.29,18.81-42.23,39.94-59.52,63.49-21.71,29.56-38.94,61.46-49.84,96.6-5.96,19.21-9.92,38.8-11.7,58.9-1.09,12.32-.49,24.6-.77,36.9-.02,1-.2,2.07.09,2.99,3.75,11.81-2.96,19.27-10.83,26.24-.87.77-1.99,1.25-2.81,2.05-7.96,7.78-12.25,4.29-16.28-3-4.17-7.55-5.6-15.96-6.07-24.45-1-18.06,1.87-35.74,5.88-53.26,6.56-28.67,14.01-57.09,24.96-84.45,12.51-31.24,29.78-59.72,50.63-86.1,9.09-11.5,18.78-22.48,29.14-32.75,29.09-28.81,61.55-53.19,97.83-72.41,28.94-15.33,59.13-27.25,90.98-34.91,18.56-4.46,37.4-7.03,56.41-8.8,14.15-1.32,28.33-1.44,42.39-.61,38.92,2.29,76.67,9.84,111.57,28.29,34.3,18.13,58.05,45.28,71.08,82,8.79,24.76,13.77,50.04,15.14,76.31.9,17.36.82,34.7-2.69,51.51-4.76,22.76-12.76,44.71-21.92,66.14-9.17,21.45-19.95,42.07-32.83,61.53-9.81,14.83-20.72,28.84-32.52,42.19-28.4,32.14-61.34,58.86-97.2,82.16-26.76,17.39-54.95,31.86-85.28,41.93-21.61,7.18-43.76,11.94-66.42,14.69-18.6,2.26-37.22,2.5-55.78,1.55-24.54-1.26-48.73-5.49-72.29-12.79-24.63-7.63-47.92-18.02-68.31-34.06-15.64-12.3-28.85-26.58-35.1-46.11-6.65-20.77-2.11-39.28,11.11-56.11,11.23-14.29,25.96-24.21,41.65-32.76,31.58-17.21,65.32-28.94,100.03-37.82,39.86-10.19,79.85-19.86,119.83-29.58,39.49-9.6,79.03-19.02,118.32-29.41,8.14-2.15,15.49-6.05,21.62-11.91,6.76-6.47,6.8-13.17.16-19.87-15.48-15.62-31.23-30.98-46.51-46.8-22.32-23.11-44.81-46.05-67.07-69.2-15.7-16.33-31.83-32.22-47.7-48.37-5.9-6-10.32-5.53-14.85,1.43-21.79,33.44-42.36,67.62-62.25,102.22-13.92,24.22-28.14,48.25-42.14,72.42-13.92,24.03-27.64,48.16-41.62,72.15-5.85,10.04-11.41,20.33-19.68,28.72-5.03,5.11-9.9,5.69-15.68,2.14-5.54-3.4-7.19-7.95-5.22-14.58,4.41-14.85,12.6-27.86,20.41-40.98,22.97-38.56,46.15-77,69.4-115.4,23.85-39.4,48.46-78.33,74.82-116.12,1.02-1.46,2.47-2.77,2.6-4.75.13-.17.27-.34.4-.52-.17.14-.34.27-.51.41ZM284.45,39.59c11,8.56,19.32,18.05,28.68,26.51,17.03,15.38,33.54,31.33,50.25,47.06,17.44,16.42,34.97,32.73,52.25,49.31,17.18,16.48,33.96,33.38,51.18,49.82,7.51,7.17,12.99,15.53,17.13,24.9,8.12,18.36,6.33,35.26-8.85,49.55-11.43,10.76-25.28,16.53-40.03,20.32-71.51,18.35-143.46,34.99-214.6,54.81-35.17,9.8-70.34,19.63-105.37,29.9-13.51,3.96-27.19,7.79-38.95,16.25-13.06,9.4-16.81,22.9-9,35.01,3.26,5.05,8.09,8.75,12.79,12.5,33.69,26.89,72.34,40.84,115.1,43.41,26.14,1.57,52.08-1.16,77.73-6.31,32.14-6.45,62.55-17.69,91.53-33.06,40.92-21.71,77.18-49.33,108.46-83.56,23.05-25.23,42.32-52.9,56.39-84.12,16.76-37.19,25.91-75.82,22.98-116.93-1.3-18.19-4.66-35.82-11.29-52.81-12.43-31.84-33.56-55.98-64.12-71.47-25.33-12.83-52.69-18.18-80.74-19.27-21.73-.84-43.54-.97-65.28,1.63-14.97,1.79-29.92,3.56-46.25,6.52Z"/>
        <text class="cls-1" transform="translate(715.36 370.46)"><tspan class="cls-3" x="0" y="0">T</tspan><tspan x="111.23" y="0">riangle</tspan><tspan class="cls-4" x="766.99" y="0"> </tspan><tspan x="815.23" y="0">Alano Club</tspan></text>
      </g>
    </g>
  </g>
</svg>